PathFileType	3	(X/Y/Z)	D:\Jess\Healthy\Labelled\HA28\20251211\SRRun01.trc
DataRate	CameraRate	NumFrames	NumMarkers	Units	OrigDataRate	OrigDataStartFrame	OrigNumFrames
250.0	250.0	4	37	mm	250.0	35312	2501
Frame#	Time	C7			T10			CLAV			LSHO			RSHO			LASIS			RASIS			LPSIS			RPSIS			LILCR			RILCR			LGTR			LTHI			LLTHI			LLEP			LMEP			LPSH			LLSH			LDSH			LLMAL			LMMAL			LTOE			L5TH			LHEE			RGTR			RTHI			RLTHI			RLEP			RMEP			RPSH			RLSH			RDSH			RLMAL			RMMAL			RTOE			R5TH			RHEE			
		X1	Y1	Z1	X2	Y2	Z2	X3	Y3	Z3	X4	Y4	Z4	X5	Y5	Z5	X6	Y6	Z6	X7	Y7	Z7	X8	Y8	Z8	X9	Y9	Z9	X10	Y10	Z10	X11	Y11	Z11	X12	Y12	Z12	X13	Y13	Z13	X14	Y14	Z14	X15	Y15	Z15	X16	Y16	Z16	X17	Y17	Z17	X18	Y18	Z18	X19	Y19	Z19	X20	Y20	Z20	X21	Y21	Z21	X22	Y22	Z22	X23	Y23	Z23	X24	Y24	Z24	X25	Y25	Z25	X26	Y26	Z26	X27	Y27	Z27	X28	Y28	Z28	X29	Y29	Z29	X30	Y30	Z30	X31	Y31	Z31	X32	Y32	Z32	X33	Y33	Z33	X34	Y34	Z34	X35	Y35	Z35	X36	Y36	Z36	X37	Y37	Z37	

313	141.244	795.6671040169475	1370.374012525286	-646.2391958942256	842.3217590640461	1126.903661003026	-536.3372379697892	791.9122123820162	1255.292126508717	-774.1554756157403	642.8836523485886	1325.143453485756	-691.6427418602248	946.9822577693612	1354.929842658404	-723.6386405084729	701.4566864344405	891.9954320802917	-713.9027931183599	934.7038916885914	886.4388641857549	-744.6874844100236	825.5904147472335	927.6137316908688	-556.9271824119736	867.132398002703	928.291311606764	-562.7261876551008	679.5433314455672	953.0944249236815	-640.4681283795047	972.1770543060156	949.4594898580672	-686.0437348281199	648.1622047541784	795.0290528499162	-627.3469302652336	729.850000417266	664.4355355452976	-757.1901308061977	692.016807499912	565.7586493702952	-665.8873954229339	714.8832814984188	430.1456008161385	-681.0363241725811	nan	nan	nan	776.2689241588124	338.1939818252615	-702.6948478872905	719.8343854906199	275.9371017461916	-580.6404565497852	792.3906700002088	177.1540260402606	-581.2240772688764	761.2140153299364	116.207638772175	-483.1308330878223	nan	nan	nan	770.6155482255776	53.78569788795948	-586.3169728928131	737.8430352677431	40.04017770553295	-544.8019974504324	815.3913738126714	102.2277124598347	-398.3853830448042	1003.61983419585	789.097156638069	-697.293416714966	935.83929998107	667.6214363666218	-804.1249857330171	995.4640387968975	550.5976505169579	-755.2137448409719	980.9089796699474	435.2020955011877	-756.0709254881982	nan	nan	nan	936.8089836913982	351.6639488182582	-746.0112713369081	991.1513849366872	361.6559125180316	-624.0135088484368	942.5608751615084	255.4972854105832	-564.1239701175373	954.4555943618876	249.9438841396081	-453.5043745086596	nan	nan	nan	976.3239481166403	117.7848591296857	-476.6767588088256	995.2442993245255	142.2456498099796	-428.8342027434616	886.9597657038051	283.4187211821671	-397.0186786018909	
314	141.248	794.9713103240582	1372.117544673644	-646.1219611287408	840.6341133582659	1128.819893854193	-535.7794019000148	793.2315696533947	1257.123677408501	-773.992376671936	643.1085946643037	1327.447835059315	-694.1455036235121	947.3894140998597	1357.156494877585	-721.3667265258322	701.8929531581507	892.7752806817568	-713.5199158139267	935.3102778899179	888.6947780172094	-743.3987587874037	825.1594574227465	929.5037093612392	-556.1722513119888	866.7085909854222	930.3581759324019	-561.7896021277464	679.5492074812317	954.1733239556702	-640.4766739146008	972.3253274758824	951.8121315534888	-684.6001478248716	648.6593889730349	796.159607432101	-626.4792431384374	730.9388444460275	664.2607139730404	-753.9681691977847	691.9526700437003	566.7861620804838	-661.7303809535498	714.8419760315876	430.5894334631758	-673.7358607587958	nan	nan	nan	776.0580878424623	338.1664878699482	-694.7055853455469	719.7601533979561	277.04438052877	-571.9869410517194	792.2161437538678	178.0665772503949	-572.415758284683	760.9539281265545	117.5070680937917	-474.0437814601324	nan	nan	nan	770.6313430474747	53.8040570284447	-576.3019525180403	737.8448012785304	40.25665057543993	-534.7821533225051	815.0831411174665	104.6240871305325	-389.3321726557571	1004.44878780994	791.6785715977626	-695.7841970743126	935.9061244928806	671.6660630828806	-804.7919737624414	995.2737433373935	554.1371636917828	-758.650359214013	980.0653694846445	438.6855215041344	-761.7903427089376	nan	nan	nan	935.7024885764712	355.0634297946095	-753.2101114929457	990.6858306189861	362.1125012228327	-631.3815316263075	941.8792640776488	254.7713070489167	-573.4846462744459	954.3748457126961	246.5080238000523	-463.0249264134781	nan	nan	nan	975.7380852142638	115.072194079852	-490.1090200684029	995.000321561829	138.0394962283643	-441.6384259734812	887.2531871794696	278.5114618257986	-405.0715909976431	
315	141.252	794.3251204330537	1374.040149722387	-646.0131436308145	838.9153179597553	1130.879331730533	-535.3132310156485	794.5782702130998	1259.229625752376	-773.8467189634868	643.4083212319633	1329.995818178504	-696.5944999155414	947.82141431492	1359.587866537628	-719.0647240203874	702.3763306723085	893.7348037807765	-713.3026030593711	935.9872367284881	891.1281094828847	-742.1460407362856	824.6773063570809	931.5400579232489	-555.5119417724723	866.232769251237	932.5651231087306	-560.9228982537823	679.5591453517728	955.4395581571002	-640.6667481327273	972.4956843998602	954.2933673247304	-683.1214172337734	649.1421585507761	797.4771551298693	-625.7978011137791	731.9944803661156	664.1976684987643	-750.7732254485413	691.9499799221779	568.0207572452822	-657.4067884965185	714.8417777779614	431.3002003653158	-666.3245457555877	nan	nan	nan	775.8778321021045	338.4327136938212	-686.6468148474592	719.6585447445816	278.3842084408329	-563.3231658761119	792.0253759216242	179.1496639331695	-563.6550913626346	760.6671654983165	118.8908524947867	-465.0638813805131	nan	nan	nan	770.6288616148992	53.85508212837559	-566.3424995577757	737.8341165602416	40.49875260317663	-524.8020725919157	814.7252778788455	107.1659314597813	-380.3896746842403	1005.2968648751	794.4248114042763	-694.2728272069928	935.9572554455799	675.9198003887778	-805.3687177938602	994.968443598766	557.8866423290967	-761.8878240888495	979.1426221099562	442.4159725595724	-767.2572266315633	nan	nan	nan	934.5319252962141	358.7076032234823	-760.2529593676163	990.1448694138096	362.6515978631674	-638.6467757917064	941.1573903567383	254.0615443942007	-582.9263973082378	954.2450232471328	242.927859542745	-472.7023173495193	nan	nan	nan	975.1164804987129	112.3607593928492	-503.7798838967129	994.694216806061	133.774094577478	-454.701501371256	887.4760589249186	273.354573981607	-413.3398564343614	
316	141.256	793.7292028016781	1376.133418269061	-645.9187194941546	837.1659352942478	1133.073665027903	-534.9397869853618	795.9476902167128	1261.591842518925	-773.7213614184168	643.7788446256438	1332.769722702506	-698.9864042206195	948.270080051706	1362.205994286858	-716.743215940868	702.903259891531	894.8736338830871	-713.2509224624119	936.7244115105646	893.7313962610421	-740.9316118819727	824.1524805872856	933.7170318788883	-554.9534089286385	865.7134802908944	934.9058826390282	-560.1333782947919	679.5786593087661	956.8978252274694	-641.0421369171121	972.6865491805265	956.8960785150891	-681.6125570108539	649.6091186873078	798.9798728059935	-625.2954807644811	733.012837447655	664.2533550907752	-747.6069911332396	692.0157608603691	569.4638443708029	-652.9152825369559	714.884438572312	432.2859528957357	-658.8296493391547	nan	nan	nan	775.7241049899538	339.0014074013114	-678.5321118404942	719.5247547933391	279.954745554705	-554.6764123079306	791.815788585047	180.4070018489494	-554.9564234798853	760.3532352817239	120.3600926241735	-456.2057171507271	nan	nan	nan	770.6051531405598	53.93740173550966	-556.4473940605696	737.8085852803933	40.76749597649174	-514.8687945646084	814.3167908257428	109.8593071448281	-371.5724103310482	1006.156263197209	797.326108036877	-692.7752615434528	935.9944279898838	680.3671940431271	-805.8590862350558	994.5540143289004	561.8184802755557	-764.9206416813309	978.1510891445695	446.3635523652686	-772.4567454575368	nan	nan	nan	933.3060797706109	362.5739134888257	-767.1226570002107	989.5302861333295	363.2632188579757	-645.7968721436914	940.4000617949035	253.3703763421369	-592.4432070707497	954.0602379367692	239.2170477529974	-482.5412985352395	nan	nan	nan	974.4660778916516	109.6747694038252	-517.681443181256	994.3287462332199	129.4759678870397	-468.0209310050057	887.6183388474813	267.9586286862997	-421.8382297208701	
